<?xml version="1.0" encoding="utf-8"?>
<!-- Generator: Adobe Illustrator 25.2.0, SVG Export Plug-In . SVG Version: 6.00 Build 0)  -->
<svg version="1.1" id="Calque_1" xmlns="http://www.w3.org/2000/svg" xmlns:xlink="http://www.w3.org/1999/xlink" x="0px" y="0px"
	 viewBox="0 0 280.2 115.6" style="enable-background:new 0 0 280.2 115.6;" xml:space="preserve">
<style type="text/css">
	.st0{fill:#52BFD2;}
	.st1{fill:#43728A;}
</style>
<g>
	<path class="st0" d="M88.3,44.7c6.9-2,18.2-13.7,15.7-19.1c11.7-3.8,22.7-21,21.8-23.5c-3-8.6-25.8,11.4-34,21.3
		c-1.7,3-7.5,12.5-7.5,12.5l5.9-13.5c0,0-23.7-30.4-33.9-19c-7.7,8.6,7.4,19.3,10.3,20.5c-2.5,2.1-10,19.4,7.8,20.8
		c4,0.3,8.2-2.7,8.2-2.7S81.5,46.7,88.3,44.7z"/>
	<path class="st1" d="M60.1,40.9c-1.2,2.4-1.8,5-1.8,7.9V81c0,3.1,2.5,5.6,5.6,5.6H65c3.1,0,5.6-2.5,5.6-5.6V49
		C64.3,47.4,61.4,43.8,60.1,40.9z"/>
	<path class="st1" d="M88.8,86.5c3.3,0,6-2.7,6-6V48c-1.4,0.7-2.7,1.3-4,1.7c-1.6,0.4-3,0.7-4.3,0.7c-1.6,0-2.8-0.3-3.8-0.8v31
		C82.7,83.9,85.4,86.5,88.8,86.5L88.8,86.5z"/>
	<path class="st1" d="M47.6,26.5c3.3,0,6-2.7,6.1-6c0-3.3-2.7-6-6.1-6c-3.3,0-6,2.7-6.1,6C41.5,23.8,44.2,26.5,47.6,26.5z"/>
	<path class="st1" d="M185.4,86.6c4.9,0,9.1-1.8,12.7-5.3c3.5-3.5,5.3-7.6,5.3-12.4l-0.2-0.2h-9.6c-1.1,0-2.1,0.7-2.5,1.8
		c-0.3,0.9-0.8,1.7-1.5,2.4c-1.2,1.1-2.6,1.7-4.3,1.7c-1.7,0-3.1-0.6-4.2-1.7c-1.1-1.1-1.7-2.5-1.7-4.2v-1.9c0-0.1,0.1-0.2,0.2-0.2
		h5.7c4.9,0,9.1-1.8,12.7-5.3c3.6-3.5,5.3-7.7,5.3-12.7c0-4.9-1.8-9.2-5.3-12.7c-3.6-3.5-7.8-5.3-12.7-5.3s-9.1,1.8-12.6,5.3
		s-5.3,7.7-5.3,12.7v20c0,4.9,1.8,9.1,5.3,12.7C176.3,84.8,180.5,86.6,185.4,86.6z M179.5,48.7c0-1.7,0.6-3.1,1.7-4.3
		c1-1.1,2.3-1.6,3.8-1.7c1.7-0.1,3.5,0.5,4.8,1.8c1.1,1.1,1.7,2.5,1.7,4.1c0,1.7-0.7,3.4-2,4.6c-1.1,1.1-2.5,1.6-4.1,1.6h-5.7
		c-0.1,0-0.2-0.1-0.2-0.2V48.7z"/>
	<path class="st1" d="M47.5,30.6c-3.3,0-6,2.7-6,6v43.9c0,3.3,2.7,6,6,6h0.1c3.3,0,6-2.7,6-6V36.6C53.6,33.3,50.9,30.6,47.5,30.6
		L47.5,30.6z"/>
	<path class="st1" d="M274.8,35.9c-3.5-3.5-7.7-5.3-12.6-5.3s-9.1,1.8-12.7,5.3c-3.5,3.4-5.3,7.6-5.3,12.4c0.1,0.1,0.2,0.2,0.3,0.3
		h9.4c1.1,0,2.2-0.9,2.6-1.9c0.3-0.8,0.8-1.6,1.5-2.3c1.2-1.1,2.6-1.7,4.3-1.7c1.7,0,3.1,0.6,4.2,1.7s1.7,2.5,1.7,4.2v1.9
		c0,0.1-0.1,0.3-0.3,0.3h-8.1c-4.9,0-9.1,1.8-12.7,5.3s-5.3,7.7-5.3,12.7c0,4.9,1.8,9.2,5.3,12.7c3.6,3.5,7.8,5.3,12.7,5.3
		c2.9,0,7.7-0.4,9.5-2.3h0.1c0.6,1,2.4,2.2,4.8,2.2c3.3,0,6-3,6-6.3V69.9c0-0.3,0-0.7,0-1V48.6C280.1,43.6,278.3,39.4,274.8,35.9z
		 M268.1,68.6c0,1.7-0.6,3.1-1.7,4.3c-1,1.1-2.3,1.6-3.8,1.7h-2.4c-1.7,0.1-3.5-0.5-4.8-1.8c-1.1-1.1-1.7-2.5-1.7-4.1
		c0-1.7,0.7-3.4,2-4.6c1.1-1.1,2.5-1.6,4.1-1.6h8.1c0.1,0,0.3,0.1,0.3,0.3v5.8H268.1z"/>
	<path class="st1" d="M18.4,30.6c-3.1,0-5.8,0.7-8.4,2c-1.1-0.9-2.4-1.5-3.9-1.5H6c-3.3,0-6,2.7-6,6v11.6v0.1V81
		c0,3.1,2.5,5.6,5.6,5.6h1.1c3.1,0,5.6-2.5,5.6-5.6V48.8c0-1.7,0.6-3.1,1.8-4.3c1.2-1.2,2.7-1.7,4.4-1.7s3.1,0.6,4.3,1.7
		c1.2,1.2,1.7,2.6,1.7,4.3V81c0,3.1,2.5,5.6,5.6,5.6h1.1c3.1,0,5.5-2.5,5.5-5.6V48.8c0-5-1.8-9.3-5.4-12.9
		C27.7,32.3,23.4,30.6,18.4,30.6z"/>
	<path class="st1" d="M214.4,16.4H214c-3.2,0-5.7,2.6-5.7,5.7v58.7c0,3.2,2.6,5.7,5.7,5.7h0.4c3.2,0,5.7-2.6,5.7-5.7V22.1
		C220.1,19,217.6,16.4,214.4,16.4z"/>
	<path class="st1" d="M162.6,67.6v-18c0-4-1.1-7.5-3.3-10.7c-3.7-5.2-10-8.1-16.4-8.1h-4.5c-0.7,0-1.2-0.5-1.2-1.2v-3.2v-0.1v-6
		c0-3.2-2.6-5.7-5.7-5.7h-0.4c-3.2,0-5.7,2-5.7,5.7V81c0,3.3,2.6,5.6,5.7,5.6h0.4c1.8,0,3.5-0.9,4.5-2.2c2.4,1.2,5.1,2.3,8,2.3
		c5.2,0,9.6-2.3,13.3-6C160.8,77,162.6,72.7,162.6,67.6z M150.2,67.6c0,1.7-0.6,3.2-1.8,4.4c-1.2,1.2-2.7,1.8-4.4,1.8
		c-1.7,0-3.2-0.6-4.4-1.8c-1.2-1.2-1.8-2.6-1.8-4.4V43.3h6.2c1.7,0,3.2,0.6,4.4,1.8c1.2,1.2,1.8,2.7,1.8,4.4V67.6z"/>
	<path class="st1" d="M119.1,48.8c0-5-1.8-9.3-5.4-12.9c-1.4-1.4-2.8-2.4-4.4-3.3c-0.1,0.2-0.1,0.3-0.2,0.5
		c-1.5,3.3-4.2,6.8-7.4,9.7c4.2,0.5,5.1,4.4,5.1,6V81c0,3.1,2.5,5.6,5.6,5.6h1.1c3.1,0,5.6-2.5,5.6-5.6L119.1,48.8L119.1,48.8z"/>
	<path class="st1" d="M231.1,16.4h-0.4c-3.2,0-5.7,2.6-5.7,5.7v58.7c0,3.2,2.6,5.7,5.7,5.7h0.4c3.2,0,5.7-2.6,5.7-5.7V22.1
		C236.9,19,234.3,16.4,231.1,16.4z"/>
</g>
</svg>
